<svg width="15" height="25" viewBox="0 0 15 25" fill="none" xmlns="http://www.w3.org/2000/svg">
<path d="M13.2406 0H2.13707C1.6842 0.000542615 1.25005 0.165337 0.929818 0.458245C0.609591 0.751153 0.429426 1.14827 0.428833 1.5625V22.6562C0.429426 23.0705 0.609591 23.4676 0.929818 23.7605C1.25005 24.0534 1.6842 24.2182 2.13707 24.2188H13.2406C13.6935 24.2182 14.1276 24.0534 14.4478 23.7605C14.7681 23.4676 14.9482 23.0705 14.9488 22.6562V1.5625C14.9482 1.14827 14.7681 0.751153 14.4478 0.458245C14.1276 0.165337 13.6935 0.000542615 13.2406 0V0ZM9.68746 0.78125L9.44724 1.5625H5.88717L5.67364 0.78125H9.68746ZM14.0947 22.6562C14.0944 22.8634 14.0043 23.0619 13.8442 23.2084C13.6841 23.3548 13.467 23.4372 13.2406 23.4375H2.13707C1.91063 23.4372 1.69356 23.3548 1.53344 23.2084C1.37333 23.0619 1.28325 22.8634 1.28295 22.6562V1.5625C1.28325 1.35538 1.37333 1.15683 1.53344 1.01037C1.69356 0.863918 1.91063 0.781521 2.13707 0.78125H4.79284L5.13929 2.04785C5.16238 2.13236 5.21569 2.20738 5.29075 2.261C5.36581 2.31461 5.4583 2.34374 5.55353 2.34375H9.77073C9.8638 2.34375 9.95432 2.31594 10.0285 2.26455C10.1027 2.21317 10.1565 2.14102 10.1818 2.05908L10.5747 0.78125H13.2406C13.467 0.781521 13.6841 0.863918 13.8442 1.01037C14.0043 1.15683 14.0944 1.35538 14.0947 1.5625V22.6562Z" fill="black"/>
<path d="M5.55355 21.875H2.56414C2.45088 21.875 2.34226 21.9162 2.26217 21.9894C2.18208 22.0627 2.13708 22.162 2.13708 22.2656C2.13708 22.3692 2.18208 22.4686 2.26217 22.5418C2.34226 22.6151 2.45088 22.6562 2.56414 22.6562H5.55355C5.66681 22.6562 5.77544 22.6151 5.85553 22.5418C5.93562 22.4686 5.98061 22.3692 5.98061 22.2656C5.98061 22.162 5.93562 22.0627 5.85553 21.9894C5.77544 21.9162 5.66681 21.875 5.55355 21.875Z" fill="black"/>
<path d="M7.26177 21.875H6.83471C6.72145 21.875 6.61282 21.9162 6.53274 21.9894C6.45265 22.0627 6.40765 22.162 6.40765 22.2656C6.40765 22.3692 6.45265 22.4686 6.53274 22.5418C6.61282 22.6151 6.72145 22.6562 6.83471 22.6562H7.26177C7.37503 22.6562 7.48366 22.6151 7.56375 22.5418C7.64384 22.4686 7.68883 22.3692 7.68883 22.2656C7.68883 22.162 7.64384 22.0627 7.56375 21.9894C7.48366 21.9162 7.37503 21.875 7.26177 21.875Z" fill="black"/>
<path d="M9.18973 9.82123C9.14164 9.79484 9.08834 9.77737 9.03287 9.76982C8.9774 9.76227 8.92084 9.76479 8.86643 9.77723C8.81202 9.78967 8.76083 9.81179 8.71577 9.84233C8.67071 9.87287 8.63266 9.91123 8.60381 9.95522L6.04145 13.8615C5.98318 13.9503 5.96587 14.0567 5.99334 14.1572C6.02081 14.2577 6.09081 14.3441 6.18793 14.3974C6.28506 14.4507 6.40135 14.4665 6.51123 14.4414C6.62112 14.4163 6.71558 14.3522 6.77386 14.2634L9.33621 10.3572C9.36507 10.3132 9.38417 10.2644 9.39242 10.2137C9.40068 10.1629 9.39793 10.1112 9.38432 10.0615C9.37072 10.0117 9.34654 9.96486 9.31315 9.92364C9.27976 9.88242 9.23782 9.84762 9.18973 9.82123Z" fill="black"/>
<path d="M10.5846 9.91206C10.5495 9.87201 10.5062 9.83866 10.4571 9.81392C10.4079 9.78918 10.3539 9.77354 10.2982 9.76788C10.1856 9.75646 10.0727 9.78643 9.98421 9.85118C9.89576 9.91593 9.83906 10.0102 9.82658 10.1132C9.81409 10.2161 9.84685 10.3194 9.91764 10.4003L11.4123 12.1093L9.91764 13.8183C9.84685 13.8992 9.81409 14.0025 9.82658 14.1055C9.83906 14.2085 9.89576 14.3027 9.98421 14.3675C10.0727 14.4322 10.1856 14.4622 10.2982 14.4508C10.4108 14.4394 10.5138 14.3875 10.5846 14.3066L12.2928 12.3535C12.3535 12.2842 12.3865 12.1981 12.3865 12.1093C12.3865 12.0206 12.3535 11.9345 12.2928 11.8652L10.5846 9.91206Z" fill="black"/>
<path d="M4.79301 14.3066C4.8638 14.3875 4.96682 14.4393 5.07942 14.4508C5.19201 14.4622 5.30495 14.4322 5.3934 14.3675C5.48184 14.3027 5.53854 14.2085 5.55103 14.1055C5.56351 14.0025 5.53076 13.8992 5.45997 13.8183L3.96526 12.1093L5.45997 10.4003C5.49502 10.3603 5.5211 10.3143 5.53672 10.265C5.55235 10.2158 5.55721 10.1641 5.55103 10.1131C5.54485 10.0622 5.52774 10.0128 5.5007 9.96782C5.47365 9.92287 5.43719 9.88324 5.3934 9.85118C5.34961 9.81911 5.29934 9.79526 5.24546 9.78097C5.19159 9.76667 5.13517 9.76223 5.07942 9.76788C5.02367 9.77354 4.96968 9.78918 4.92053 9.81392C4.87139 9.83866 4.82806 9.87201 4.79301 9.91206L3.08478 11.8652C3.02413 11.9345 2.99109 12.0206 2.99109 12.1093C2.99109 12.1981 3.02413 12.2842 3.08478 12.3535L4.79301 14.3066Z" fill="black"/>
</svg>
