<svg width="28" height="21" viewBox="0 0 28 21" fill="none" xmlns="http://www.w3.org/2000/svg">
<path d="M25.6174 0H1.81235C1.34487 0.000560118 0.896714 0.17067 0.566157 0.473027C0.2356 0.775384 0.0496236 1.18531 0.0490112 1.6129V15.3226C0.0496236 15.7502 0.2356 16.1601 0.566157 16.4625C0.896714 16.7648 1.34487 16.9349 1.81235 16.9355H10.899L10.3111 18.5484H8.8657C8.74878 18.5484 8.63665 18.5909 8.55398 18.6665C8.47131 18.7421 8.42486 18.8447 8.42486 18.9516V19.7581H4.45735C4.34044 19.7581 4.22831 19.8005 4.14564 19.8762C4.06297 19.9518 4.01652 20.0543 4.01652 20.1613C4.01652 20.2682 4.06297 20.3708 4.14564 20.4464C4.22831 20.522 4.34044 20.5645 4.45735 20.5645H23.8541C23.971 20.5645 24.0831 20.522 24.1658 20.4464C24.2485 20.3708 24.2949 20.2682 24.2949 20.1613C24.2949 20.0543 24.2485 19.9518 24.1658 19.8762C24.0831 19.8005 23.971 19.7581 23.8541 19.7581H19.0049V18.9516C19.0049 18.8447 18.9584 18.7421 18.8758 18.6665C18.7931 18.5909 18.681 18.5484 18.5641 18.5484H17.1187L16.5307 16.9355H25.6174C26.0849 16.9349 26.533 16.7648 26.8636 16.4625C27.1942 16.1601 27.3801 15.7502 27.3807 15.3226V1.6129C27.3801 1.18531 27.1942 0.775384 26.8636 0.473027C26.533 0.17067 26.0849 0.000560118 25.6174 0ZM18.1232 19.3548V19.7581H9.30653V19.3548H18.1232ZM11.2407 18.5484L11.8287 16.9355H15.6011L16.1891 18.5484H11.2407ZM26.4991 15.3226C26.4988 15.5364 26.4058 15.7413 26.2405 15.8925C26.0752 16.0437 25.8511 16.1288 25.6174 16.129H1.81235C1.57861 16.1288 1.35453 16.0437 1.18925 15.8925C1.02397 15.7413 0.930986 15.5364 0.93068 15.3226V14.5161H26.4991V15.3226ZM7.52446 10.0806L7.35915 13.7097H6.84557L6.68026 10.0806H7.52446ZM6.74088 9.27419L7.03513 7.66129H7.16959L7.46384 9.27419H6.74088ZM7.10236 6.85484C6.62461 6.85484 6.22069 6.30091 6.22069 5.64516C6.22069 5.23135 6.68247 4.63004 7.10126 4.20615C7.47872 4.58921 7.98403 5.20161 7.98403 5.64516C7.98403 6.30091 7.58011 6.85484 7.10236 6.85484ZM11.8997 6.04839L11.9515 6.14365V6.45161H10.1882V6.14365L10.24 6.04839H11.8997ZM10.6808 5.24194L11.0699 4.53075L11.4589 5.24194H10.6808ZM11.9515 7.25806V13.6593C11.9517 13.6761 11.953 13.693 11.9554 13.7097H10.1843C10.1867 13.693 10.188 13.6761 10.1882 13.6593V7.25806H11.9515ZM15.919 5.64516H17.2416V6.45161H16.8007C16.6838 6.45161 16.5717 6.4941 16.489 6.56971C16.4063 6.64533 16.3599 6.7479 16.3599 6.85484C16.3599 6.96178 16.4063 7.06434 16.489 7.13996C16.5717 7.21558 16.6838 7.25806 16.8007 7.25806H17.2416V8.06452H15.919C15.8021 8.06452 15.69 8.107 15.6073 8.18262C15.5247 8.25824 15.4782 8.3608 15.4782 8.46774C15.4782 8.57468 15.5247 8.67725 15.6073 8.75287C15.69 8.82849 15.8021 8.87097 15.919 8.87097H17.2416V9.67742H16.8007C16.6838 9.67742 16.5717 9.7199 16.489 9.79552C16.4063 9.87114 16.3599 9.9737 16.3599 10.0806C16.3599 10.1876 16.4063 10.2901 16.489 10.3658C16.5717 10.4414 16.6838 10.4839 16.8007 10.4839H17.2416V11.2903H15.919C15.8021 11.2903 15.69 11.3328 15.6073 11.4084C15.5247 11.484 15.4782 11.5866 15.4782 11.6935C15.4782 11.8005 15.5247 11.9031 15.6073 11.9787C15.69 12.0543 15.8021 12.0968 15.919 12.0968H17.2416V13.7097H14.1557V4.03226H17.2416V4.83871H15.919C15.8021 4.83871 15.69 4.88119 15.6073 4.95681C15.5247 5.03243 15.4782 5.13499 15.4782 5.24194C15.4782 5.34888 15.5247 5.45144 15.6073 5.52706C15.69 5.60268 15.8021 5.64516 15.919 5.64516ZM21.2091 10.4839V13.6593C21.2092 13.6761 21.2105 13.693 21.2129 13.7097H19.4419C19.4443 13.693 19.4456 13.6761 19.4457 13.6593V10.4839H21.2091ZM19.4457 9.67742V9.36946L20.3274 7.75655L21.2091 9.36946V9.67742H19.4457ZM26.4991 13.7097H22.0869C22.0893 13.693 22.0906 13.6761 22.0907 13.6593V9.27419C22.0907 9.21159 22.0748 9.14984 22.0444 9.09375L20.7219 6.6744C20.6852 6.60743 20.6289 6.55113 20.5592 6.51178C20.4896 6.47243 20.4093 6.4516 20.3274 6.4516C20.2455 6.4516 20.1652 6.47243 20.0956 6.51178C20.0259 6.55113 19.9695 6.60743 19.9328 6.6744L18.6103 9.09375C18.58 9.14984 18.5641 9.21159 18.5641 9.27419V13.6593C18.5642 13.6761 18.5655 13.693 18.5679 13.7097H18.1232V3.62903C18.1232 3.52209 18.0768 3.41953 17.9941 3.34391C17.9114 3.26829 17.7993 3.22581 17.6824 3.22581H13.7149C13.598 3.22581 13.4858 3.26829 13.4032 3.34391C13.3205 3.41953 13.274 3.52209 13.274 3.62903V13.7097H12.8293C12.8317 13.693 12.833 13.6761 12.8332 13.6593V6.04839C12.8331 5.98578 12.8173 5.92404 12.7869 5.86794L11.4644 3.44859C11.4277 3.38163 11.3714 3.32532 11.3017 3.28598C11.232 3.24663 11.1518 3.22579 11.0699 3.22579C10.988 3.22579 10.9077 3.24663 10.838 3.28598C10.7684 3.32532 10.712 3.38163 10.6753 3.44859L9.35282 5.86794C9.32244 5.92404 9.3066 5.98578 9.30653 6.04839V13.6593C9.3067 13.6761 9.30799 13.693 9.31039 13.7097H8.24137L8.42431 9.69405C8.42486 9.68498 8.42431 9.67591 8.42431 9.66633V9.65423C8.42329 9.64004 8.42145 9.62591 8.4188 9.6119V9.61089L8.01103 7.37248C8.52295 7.01915 8.8657 6.37702 8.8657 5.64516C8.8657 4.60887 7.55256 3.46119 7.40268 3.33367C7.321 3.26442 7.21373 3.22594 7.10236 3.22594C6.99099 3.22594 6.88372 3.26442 6.80204 3.33367C6.65216 3.46119 5.33902 4.60887 5.33902 5.64516C5.33902 6.37702 5.68177 7.01915 6.19369 7.37248L5.78592 9.61089V9.6119C5.78327 9.62591 5.78143 9.64004 5.78041 9.65423V9.66633C5.78041 9.67591 5.77986 9.68498 5.78041 9.69405L5.96336 13.7097H0.93068V1.6129C0.930986 1.3991 1.02397 1.19414 1.18925 1.04297C1.35453 0.891787 1.57861 0.806732 1.81235 0.806452H25.6174C25.8511 0.806732 26.0752 0.891787 26.2405 1.04297C26.4058 1.19414 26.4988 1.3991 26.4991 1.6129V13.7097Z" fill="black"/>
<path d="M4.89822 14.9193H2.25321C2.1363 14.9193 2.02417 14.9618 1.9415 15.0374C1.85882 15.113 1.81238 15.2156 1.81238 15.3225C1.81238 15.4295 1.85882 15.532 1.9415 15.6077C2.02417 15.6833 2.1363 15.7258 2.25321 15.7258H4.89822C5.01514 15.7258 5.12726 15.6833 5.20994 15.6077C5.29261 15.532 5.33905 15.4295 5.33905 15.3225C5.33905 15.2156 5.29261 15.113 5.20994 15.0374C5.12726 14.9618 5.01514 14.9193 4.89822 14.9193Z" fill="black"/>
<path d="M6.66158 14.9193H6.22074C6.10383 14.9193 5.9917 14.9618 5.90902 15.0374C5.82635 15.113 5.77991 15.2156 5.77991 15.3225C5.77991 15.4295 5.82635 15.532 5.90902 15.6077C5.9917 15.6833 6.10383 15.7258 6.22074 15.7258H6.66158C6.77849 15.7258 6.89062 15.6833 6.97329 15.6077C7.05597 15.532 7.10241 15.4295 7.10241 15.3225C7.10241 15.2156 7.05597 15.113 6.97329 15.0374C6.89062 14.9618 6.77849 14.9193 6.66158 14.9193Z" fill="black"/>
<path d="M11.0699 7.66125C10.953 7.66125 10.8409 7.70374 10.7582 7.77936C10.6755 7.85498 10.6291 7.95754 10.6291 8.06448V12.5C10.6291 12.6069 10.6755 12.7095 10.7582 12.7851C10.8409 12.8607 10.953 12.9032 11.0699 12.9032C11.1868 12.9032 11.299 12.8607 11.3816 12.7851C11.4643 12.7095 11.5108 12.6069 11.5108 12.5V8.06448C11.5108 7.95754 11.4643 7.85498 11.3816 7.77936C11.299 7.70374 11.1868 7.66125 11.0699 7.66125Z" fill="black"/>
<path d="M20.3274 10.8871C20.2105 10.8871 20.0983 10.9296 20.0157 11.0052C19.933 11.0808 19.8865 11.1834 19.8865 11.2903V12.5C19.8865 12.6069 19.933 12.7095 20.0157 12.7851C20.0983 12.8607 20.2105 12.9032 20.3274 12.9032C20.4443 12.9032 20.5564 12.8607 20.6391 12.7851C20.7218 12.7095 20.7682 12.6069 20.7682 12.5V11.2903C20.7682 11.1834 20.7218 11.0808 20.6391 11.0052C20.5564 10.9296 20.4443 10.8871 20.3274 10.8871Z" fill="black"/>
<path d="M2.25321 2.41937H5.77989C5.8968 2.41937 6.00893 2.37688 6.0916 2.30126C6.17428 2.22564 6.22072 2.12308 6.22072 2.01614C6.22072 1.9092 6.17428 1.80664 6.0916 1.73102C6.00893 1.6554 5.8968 1.61292 5.77989 1.61292H2.25321C2.1363 1.61292 2.02417 1.6554 1.9415 1.73102C1.85882 1.80664 1.81238 1.9092 1.81238 2.01614C1.81238 2.12308 1.85882 2.22564 1.9415 2.30126C2.02417 2.37688 2.1363 2.41937 2.25321 2.41937Z" fill="black"/>
<path d="M2.25321 3.62908H3.13488C3.2518 3.62908 3.36393 3.5866 3.4466 3.51098C3.52927 3.43536 3.57572 3.3328 3.57572 3.22586C3.57572 3.11892 3.52927 3.01635 3.4466 2.94073C3.36393 2.86511 3.2518 2.82263 3.13488 2.82263H2.25321C2.1363 2.82263 2.02417 2.86511 1.9415 2.94073C1.85882 3.01635 1.81238 3.11892 1.81238 3.22586C1.81238 3.3328 1.85882 3.43536 1.9415 3.51098C2.02417 3.5866 2.1363 3.62908 2.25321 3.62908Z" fill="black"/>
<path d="M23.4132 12.9033H25.1766C25.2935 12.9033 25.4056 12.8608 25.4883 12.7852C25.571 12.7095 25.6174 12.607 25.6174 12.5C25.6174 12.3931 25.571 12.2905 25.4883 12.2149C25.4056 12.1393 25.2935 12.0968 25.1766 12.0968H23.4132C23.2963 12.0968 23.1842 12.1393 23.1015 12.2149C23.0189 12.2905 22.9724 12.3931 22.9724 12.5C22.9724 12.607 23.0189 12.7095 23.1015 12.7852C23.1842 12.8608 23.2963 12.9033 23.4132 12.9033Z" fill="black"/>
<path d="M24.7358 11.6935H25.1766C25.2935 11.6935 25.4056 11.6511 25.4883 11.5754C25.571 11.4998 25.6174 11.3973 25.6174 11.2903C25.6174 11.1834 25.571 11.0808 25.4883 11.0052C25.4056 10.9296 25.2935 10.8871 25.1766 10.8871H24.7358C24.6188 10.8871 24.5067 10.9296 24.424 11.0052C24.3414 11.0808 24.2949 11.1834 24.2949 11.2903C24.2949 11.3973 24.3414 11.4998 24.424 11.5754C24.5067 11.6511 24.6188 11.6935 24.7358 11.6935Z" fill="black"/>
</svg>
